 http://desibbrg.org/images/66952052392581364616.gif
 
http://desibbrg.org/images/89722955065384350794.jpg
 
http://desibbrg.org/images/42689193960826520049.jpg
 
http://desibbrg.org/images/10730123602755383949.jpg
 
http://desibbrg.org/images/87558530522413973537.jpg
 
http://desibbrg.org/images/36434580339575516790.jpg
 
http://desibbrg.org/images/86154442857429481763.jpg

Media Info  - 
General
Complete name                    : Phaans (2012) DVDRip -Xvid - MP3 - Team IcTv EXC (1).avi
Format                           : AVI
Format/Info                      : Audio Video Interleave
File size                        : 698 MiB
Duration                         : 2h 17mn
Overall bit rate                 : 711 Kbps

Video
ID                               : 0
Format                           : MPEG-4 Visual
Codec ID                         : XVID
Codec ID/Hint                    : XviD
Duration                         : 2h 17mn
Bit rate                         : 607 Kbps
Width                            : 640 pixels
Height                           : 272 pixels
Display aspect ratio             : 2.35:1
Frame rate                       : 24.000 fps
Color space                      : YUV
Chroma subsampling               : 4:2:0
Compression mode                 : Lossy
Bits/(Pixel*Frame)               : 0.145
Stream size                      : 596 MiB (85%)

Audio
ID                               : 1
Format                           : MPEG Audio
Format version                   : Version 1
Format profile                   : Layer 3
Codec ID                         : 55
Codec ID/Hint                    : MP3
Duration                         : 2h 17mn
Bit rate mode                    : Variable
Bit rate                         : 92.2 Kbps
Nominal bit rate                 : 112 Kbps
Channel(s)                       : 1 channel
Sampling rate                    : 44.1 KHz
Compression mode                 : Lossy
Stream size                      : 90.6 MiB (13%)
Alignment                        : Aligned on interleaves
Interleave, duration             : 26 ms (0.63 video frame)
Interleave, preload duration     : 90 ms
Title                            : phaans
Writing library                  : LAME3.99r
Encoding settings                : -m m -V 4 -q 2 -lowpass 20.5 --abr 112

Ripper : Master Mind

Seeding 24x7... Extreme Seeding...


Enjoy!
